solid basic_boxWalls
facet normal 0.000000 0.000000 1.000000
outer loop
vertex 2.801037 0.552375 0.383081
vertex -2.712285 0.552375 0.383081
vertex -2.712285 -0.506362 0.383081
endloop
endfacet
facet normal 0.000000 0.000000 1.000000
outer loop
vertex 2.801037 0.552375 0.383081
vertex -2.712285 -0.506362 0.383081
vertex 2.801037 -0.506362 0.383081
endloop
endfacet
facet normal 0.000000 -1.000000 0.000000
outer loop
vertex 2.801037 -0.506362 -0.326499
vertex 2.801037 -0.506362 0.383081
vertex -2.712285 -0.506362 0.383081
endloop
endfacet
facet normal 0.000000 -1.000000 0.000000
outer loop
vertex 2.801037 -0.506362 -0.326499
vertex -2.712285 -0.506362 0.383081
vertex -2.712285 -0.506362 -0.326499
endloop
endfacet
facet normal 0.000000 0.000000 -1.000000
outer loop
vertex -2.712285 0.552375 -0.326499
vertex 2.801037 0.552375 -0.326499
vertex 2.801037 -0.506362 -0.326499
endloop
endfacet
facet normal 0.000000 0.000000 -1.000000
outer loop
vertex -2.712285 0.552375 -0.326499
vertex 2.801037 -0.506362 -0.326499
vertex -2.712285 -0.506362 -0.326499
endloop
endfacet
facet normal 0.000000 1.000000 0.000000
outer loop
vertex -2.712285 0.552375 -0.326499
vertex -2.712285 0.552375 0.383081
vertex 2.801037 0.552375 0.383081
endloop
endfacet
facet normal 0.000000 1.000000 0.000000
outer loop
vertex -2.712285 0.552375 -0.326499
vertex 2.801037 0.552375 0.383081
vertex 2.801037 0.552375 -0.326499
endloop
endfacet
endsolid basic_boxWalls
